# xmcd
#
# Track frame offsets:
#	150
#	17140
#	28734
#	46827
#	61406
#	70328
#	85298
#	100306
#	117137
#	127702
#	142412
#	154170
#	168486
#	181790
#
# Disc length: 2548 seconds
#
# Revision: 1
# Processed by: cddbd v1.5.2PL0 Copyright (c) Steve Scherf et al.
# Submitted via: EZCDAudioConverter 6.0.0.1
#
DISCID=bc09f20e
DTITLE=Frank Sinatra - Hello Frank - Night And Day
DYEAR=2015
DGENRE=Blues
TTITLE0=I'VE GOT YOU UNDER MY SKIN
TTITLE1=MY FUNNY VALENTINE
TTITLE2=NIGHT AND DAY
TTITLE3=NANCY
TTITLE4=THEY CAN'T TAKE THAT AWAY FROM ME
TTITLE5=OVER THE RAINBOW
TTITLE6=COME FLY WITH ME
TTITLE7=ANGEL EYES
TTITLE8=PERSONALITY
TTITLE9=WHERE OR WHEN
TTITLE10=THAT OLD BLACK MAGIC
TTITLE11=DAY BY DAY
TTITLE12=THE MUSIC STOPPED
TTITLE13=THE MOON WAS YELLOW (AND THE NIGHT WAS YOUNG)
EXTD=
EXTT0=
EXTT1=
EXTT2=
EXTT3=
EXTT4=
EXTT5=
EXTT6=
EXTT7=
EXTT8=
EXTT9=
EXTT10=
EXTT11=
EXTT12=
EXTT13=
PLAYORDER=
